<svg xmlns="http://www.w3.org/2000/svg" viewBox="0 0 15.78 15.78"><defs><style>.cls-1{fill:#fff;}</style></defs><title>Asset 2</title><g id="Layer_2" data-name="Layer 2"><g id="Capa_1" data-name="Capa 1"><path class="cls-1" d="M15.78,7.89A7.89,7.89,0,1,1,7.88,0a7.91,7.91,0,0,1,7.9,7.89m-10,.28h.9v4.56h1.9V8.16H9.85c.06-.54.11-1.07.17-1.61H8.58c0-.37,0-.71,0-1.06a.32.32,0,0,1,.35-.32c.24,0,.49,0,.74,0H10l0,0V3.68c0-.09-.05-.09-.11-.09H8.61a2.05,2.05,0,0,0-1.19.32,1.71,1.71,0,0,0-.73,1.37c0,.37,0,.74,0,1.11,0,.17,0,.17-.17.17H5.77Z"/></g></g></svg>