<svg xmlns="http://www.w3.org/2000/svg" viewBox="0 0 15.76 15.76"><defs><style>.cls-1{fill:#fff;}</style></defs><title>Asset 1</title><g id="Layer_2" data-name="Layer 2"><g id="Capa_1" data-name="Capa 1"><path class="cls-1" d="M7.38,0h1l.13,0c.4.06.82.1,1.22.19a7.86,7.86,0,0,1,5.9,6.28c0,.29.09.58.13.88v1l0,.14c-.06.4-.1.81-.2,1.21a7.87,7.87,0,0,1-6.28,5.91l-.87.12h-1l-.13,0c-.41-.06-.82-.1-1.22-.2A7.84,7.84,0,0,1,.12,9.25C.07,9,0,8.67,0,8.38v-1l0-.14C.09,6.83.13,6.42.22,6A7.88,7.88,0,0,1,6.5.12c.29,0,.58-.08.88-.12m.48,13.55h2.51a3.24,3.24,0,0,0,3.18-3.21c0-1.64,0-3.29,0-4.93a3.23,3.23,0,0,0-3.21-3.2H5.41a3.22,3.22,0,0,0-3.2,3.18c0,1.66,0,3.31,0,5A3.22,3.22,0,0,0,5.4,13.55H7.86"/><path class="cls-1" d="M12.6,7.88v2a2.7,2.7,0,0,1-2.24,2.71,2.92,2.92,0,0,1-.51,0H5.91A2.69,2.69,0,0,1,3.2,10.36a2.92,2.92,0,0,1,0-.51c0-1.32,0-2.63,0-3.94A2.7,2.7,0,0,1,5.39,3.2a3,3,0,0,1,.52,0c1.31,0,2.63,0,3.94,0A2.7,2.7,0,0,1,12.56,5.4a3.08,3.08,0,0,1,0,.53c0,.65,0,1.3,0,2M5,7.9A2.9,2.9,0,1,0,7.91,5,2.91,2.91,0,0,0,5,7.9m5.88-3.74a.74.74,0,0,0-.74.74.76.76,0,0,0,.75.74.74.74,0,0,0,.73-.75.72.72,0,0,0-.74-.73"/><path class="cls-1" d="M7.91,9.75A1.85,1.85,0,1,1,9.75,7.91,1.85,1.85,0,0,1,7.91,9.75"/></g></g></svg>